<?xml version="1.0" standalone="no"?><!DOCTYPE svg PUBLIC "-//W3C//DTD SVG 1.1//EN" "http://www.w3.org/Graphics/SVG/1.1/DTD/svg11.dtd"><svg t="1755344544256" class="icon" viewBox="0 0 1024 1024" version="1.1" xmlns="http://www.w3.org/2000/svg" p-id="8335" xmlns:xlink="http://www.w3.org/1999/xlink" width="200" height="200"><path d="M139.05602897 664.92113135a19.45691455 19.45691455 0 0 0 0 38.79222275 19.70012549 19.70012549 0 0 0 19.33530908-19.45691456 17.87603993 17.87603993 0 0 0-19.33530908-19.33530819zM191.22488054 799.17383955A33.56317706 33.56317706 0 1 0 192.68414967 732.04748545a33.56317706 33.56317706 0 0 0-1.45926913 67.1263541zM422.15413241 751.5044c-16.41677168-7.53955401-32.83354247-14.95750253-50.70958332-22.37545107a39.76506826 39.76506826 0 0 0-38.67061729 2.91853652 37.45455997 37.45455997 0 0 0-16.4167708 17.87603994c41.71076016 19.45691455 83.42152031 37.3329545 125.1322796 56.78986905 0-1.58087461 1.45926826-3.04014287 1.45926826-4.49941202a40.25149102 40.25149102 0 0 0-20.79457645-50.70958242zM408.65589812 824.58943437c-4.37780567 10.45809141-7.41794854 20.91618281-12.16057147 31.37427422a339.40154883 339.40154883 0 0 1-38.6706173 72.96342891c-1.45926826 1.45926826-3.04014287 3.04014287-4.49941114 3.04014287l-22.37545195-4.49941201c-4.37780567-1.58087461-8.8772168-1.58087461-13.37662881-3.04014287A243.21142881 243.21142881 0 0 0 346.15056061 876.75828594l-5.95868027 6.08028574a147.14291426 147.14291426 0 0 1-40.25149101 26.75325674 24.32114297 24.32114297 0 0 1-26.75325763 0 159.18188028 159.18188028 0 0 0-22.37545107-10.33648593 88.04253692 88.04253692 0 0 0 20.79457735-29.91500509 79.04371466 79.04371466 0 0 1-35.75207988 17.87603994 5.35065117 5.35065117 0 0 1-4.37780567-1.45926914l-19.45691454-14.95750251a65.05905674 65.05905674 0 0 0-10.33648594-8.87721683H204.84472029a243.81945703 243.81945703 0 0 0 72.9634289-24.32114297 164.53253145 164.53253145 0 0 0 40.25149189-32.83354335 117.10630283 117.10630283 0 0 0 12.16057148-17.87603994 150.79108535 150.79108535 0 0 1-22.37545195-13.37662793c-4.37780567 5.95868028-7.41794854 10.45809141-12.16057148 16.4167708a140.45460029 140.45460029 0 0 1-52.04724522 35.7520799 180.46288037 180.46288037 0 0 1-68.58562323 13.49823426 12.16057149 12.16057149 0 0 0-12.1605715 7.41794854 12.16057149 12.16057149 0 0 0 3.04014288 14.95750341 255.37200029 255.37200029 0 0 0 116.13345732 82.08385665 279.69314326 279.69314326 0 0 0 77.46284005 18.24085722 17.51122266 17.51122266 0 0 0 16.41677167-7.41794853 24.32114297 24.32114297 0 0 1 5.9586794-7.53955401 427.32248028 427.32248028 0 0 0 48.64228594-101.41916572l5.35065117-13.49823428c-8.99882315-2.9185374-16.41677168-5.95868028-25.29398848-8.87721679-0.36481729-1.58087461-1.94569102 0-1.94569101 1.45926826z" p-id="8336" fill="#ffffff"></path><path d="M629.24866315 179.8359374a117.8359374 116.13345733 90 1 0 232.26691465 0 117.8359374 116.13345733 90 1 0-232.26691465 0Z" p-id="8337" fill="#ffffff"></path><path d="M198.64282907 691.79599443m-13.37662793 0a13.37662881 13.37662881 0 1 0 26.75325675 0 13.37662881 13.37662881 0 1 0-26.75325675 0Z" p-id="8338" fill="#ffffff"></path><path d="M745.38212048 315.66952021c-76.00357177 1.58087461-92.42034258 43.29163388-95.33887998 62.74854844l-67.12635411-24.32114298a9.12042862 9.12042862 0 0 0-1.45926826-5.95868026 17.38961719 17.38961719 0 0 0-13.3766288-7.41794852 12.89020606 12.89020606 0 0 0-10.45809142 2.91853739l-7.41794853-1.45926826s-31.25266875-8.99882315-43.17002841 31.37427421c-10.45809141 31.37427422 8.8772168 41.71076016 16.29516533 44.75090303-10.33648594 24.32114297-24.32114297 50.70958243-37.21134815 79.04371377h-4.37780566s-22.37545107 8.99882315-22.37545196 46.33177764a11.30933145 11.30933145 0 0 0 1.45926914 7.41794853c-34.29281162 76.12517724-67.00474864 145.92685693-74.42269715 159.66830215l-1.58087462 3.04014288 1.58087462 1.45926914 38.67061639 17.87603993c0-1.45926826 0-1.45926826 1.45926913-1.45926914 5.95868028-14.95750253 34.29281162-80.62458838 65.54547951-153.70962275h3.04014287l97.28457187-12.16057148 60.80285655-28.33413135 1.5808746 37.94098271v95.46048633l-70.28810244 195.54198838s-14.95750253 52.16885156 24.32114297 70.04489151 58.12753183-8.8772168 58.12753096-8.87721768l58.12753184-200.04139952c8.99882315-34.29281162 20.91618281-14.83589708 20.91618281-14.83589706V915.67211415c2.9185374 37.21134815 48.64228594 34.29281162 48.64228506 34.29281163 41.71076016 0 47.66944042-31.37427422 47.66944042-31.37427422v-538.71331465c-5.10744023-71.62576612-96.91975459-64.20781758-96.91975458-64.2078167zM578.53908073 487.6200002l-52.16885157 5.95867939c8.8772168-22.37545107 19.33530819-43.29163388 26.75325762-62.74854844l70.04489063 29.91500596z" p-id="8339" fill="#ffffff"></path></svg>