<?xml version="1.0" standalone="no"?><!DOCTYPE svg PUBLIC "-//W3C//DTD SVG 1.1//EN" "http://www.w3.org/Graphics/SVG/1.1/DTD/svg11.dtd"><svg t="1761770892867" class="icon" viewBox="0 0 1024 1024" version="1.1" xmlns="http://www.w3.org/2000/svg" p-id="4859" xmlns:xlink="http://www.w3.org/1999/xlink" width="200" height="200"><path d="M257.92256 30.42816h508.16c132.5184 0 242.09536 115.712 242.09536 256.29056v450.00064c0 140.84224-109.57696 256.84352-242.09536 256.84352h-508.16c-132.5184 0-242.09408-116.00128-242.09408-256.84352V286.72384c0-140.57856 109.57696-256.28928 242.09536-256.28928z m-13.50016 173.99168h133.58848c12.43008 0 22.4 10.86464 22.4 24.28672 0 13.1584-9.96352 24.28672-22.4 24.28672h-78.28992l80.98048 85.43872a24.80256 24.80256 0 0 1 0 34.28096 21.78048 21.78048 0 0 1-32.10752 0l-81.23008-85.43872v82.304c0 13.73824-10.24 24.28672-22.94144 24.28672-12.43008 0-22.4-10.54848-22.4-24.28672V228.70272c0-13.13152 9.96352-24.28672 22.4-24.28672z m535.18208 614.57408h-133.0688c-12.928 0-22.94144-10.57408-22.94144-23.70688 0-13.1584 10.01344-24.31232 22.94144-24.31232h78.01728l-80.98176-85.99296c-8.64384-9.41312-8.64384-24.86656 0-33.69984a21.64736 21.64736 0 0 1 32.384 0l80.70656 85.43744v-82.85312c0-13.15968 10.26304-23.73376 22.94144-23.73376a23.36256 23.36256 0 0 1 23.21664 23.73376v141.4208a23.712 23.712 0 0 1-23.21536 23.70688z m23.21664-590.2912v140.86912c0 13.73824-10.26304 24.28672-23.21664 24.28672-12.672 0-22.94144-10.54848-22.94144-24.28672v-82.304l-80.70656 85.43872a22.09408 22.09408 0 0 1-32.384 0 25.9008 25.9008 0 0 1 0-34.28096l80.98176-85.43872h-78.01856c-12.928 0-22.94144-11.12832-22.94144-24.28672 0-13.42208 10.01344-24.28672 22.94144-24.28672h133.0688c12.40576 0 23.21664 11.1552 23.21664 24.28672zM222.0288 795.28704V653.86624c0-13.15968 9.96352-23.73376 22.4-23.73376 12.70272 0 22.94144 10.57408 22.94144 23.73376v82.85312l81.23008-85.43744a21.34272 21.34272 0 0 1 32.10752 0c9.16736 8.832 9.16736 24.28672 0 33.69984l-80.98048 85.99296h78.28992c12.43008 0 22.4 11.15392 22.4 24.31232 0 13.1328-9.96352 23.70688-22.4 23.70688H244.4224c-12.43008 0-22.4-10.57408-22.4-23.70688zM766.07616 111.0144H257.92256c-90.67008 0-165.44896 79.136-165.44896 175.70944v449.99552c0 96.54144 74.77888 176.256 165.44896 176.256h508.16c90.72128 0 166.272-79.71584 166.272-176.256V286.72384c0-96.56704-75.54944-175.70304-166.272-175.70304z" fill="#bfbfbf" p-id="4860"></path></svg>