<?xml version="1.0" standalone="no"?><!DOCTYPE svg PUBLIC "-//W3C//DTD SVG 1.1//EN" "http://www.w3.org/Graphics/SVG/1.1/DTD/svg11.dtd"><svg t="1755369774170" class="icon" viewBox="0 0 1024 1024" version="1.1" xmlns="http://www.w3.org/2000/svg" p-id="6930" xmlns:xlink="http://www.w3.org/1999/xlink" width="200" height="200"><path d="M773.904 475.930667l30.858667 29.472-137.333334 143.770666-64.192-67.2 30.858667-29.472 33.333333 34.901334 106.474667-111.466667zM492.602667 704H288c-17.648 0-32-14.352-32-32s14.352-32 32-32h160v-42.666667H202.666667c-17.648 0-32-14.352-32-32s14.352-32 32-32h245.333333v-42.666666H160c-17.648 0-32-14.352-32-32s14.352-32 32-32h309.333333v-42.666667H224c-17.648 0-32-14.352-32-32s14.352-32 32-32h427.002667L522.325333 198.501333A42.570667 42.570667 0 0 1 512 170.666667c0-23.525333 19.141333-42.666667 42.666667-42.666667 5.472 0 13.898667 2.261333 17.306666 3.658667 13.738667 8.181333 132.384 94.08 204.784 146.906666l0.746667 0.517334c26.362667 17.578667 52.981333 39.072 74.298667 69.717333l51.946666 3.402667c-27.152-51.792-66.149333-84.282667-102.197333-108.362667-90.757333-66.224-200.933333-146.026667-211.376-150.784C583.365333 89.952 568.282667 85.333333 554.666667 85.333333c-47.050667 0-85.333333 38.282667-85.333334 85.333334 0 21.029333 7.717333 41.237333 21.733334 56.896L543.664 277.333333H224c-41.173333 0-74.666667 33.493333-74.666667 74.666667 0 11.525333 2.704 22.410667 7.386667 32.165333C117.077333 385.898667 85.333333 418.602667 85.333333 458.666667c0 33.173333 21.76 61.328 51.733334 71.029333A74.202667 74.202667 0 0 0 128 565.333333c0 41.173333 33.493333 74.666667 74.666667 74.666667h17.973333a74.085333 74.085333 0 0 0-7.306667 32c0 41.173333 33.493333 74.666667 74.666667 74.666667h208.666667l-4.064-42.666667z m372.682666 17.285333l-8.181333 1.226667 49.829333 149.488h-81.813333l-61.861333 41.242667-45.418667-136.250667-16.506667 12.202667-16.506666-12.202667-45.418667 136.250667-61.866667-41.242667H495.733333l49.829334-149.488-8.181334-1.226667-7.413333-49.450666-42.848-25.770667 12.074667-48.522667-29.722667-40.208 29.722667-40.213333-12.074667-48.517333 42.848-25.770667 7.413333-49.450667 49.450667-7.413333 25.770667-42.848 48.522666 12.074667 40.208-29.722667 40.213334 29.722667 48.517333-12.074667 25.770667 42.848 49.450666 7.413333 7.413334 49.450667 42.848 25.770667-12.074667 48.522666 29.722667 40.208-29.722667 40.208 12.074667 48.522667-42.848 25.770667-7.413334 49.450666z m-220.992 42.373334l-31.690666 7.888-24.714667-41.088-32.96 98.874666h35.530667l26.133333 17.424 27.701333-83.093333zM847.733333 829.333333l-32.96-98.874666-24.709333 41.088-31.690667-7.888 27.701334 83.093333 26.133333-17.418667h35.525333z m18.794667-203.573333l-9.312-37.424 22.922667-31.002667-22.922667-31.002666 9.312-37.424-33.045333-19.872-5.717334-38.133334-38.133333-5.717333-19.872-33.045333-37.424 9.312-31.002667-22.922667-31.002666 22.922667-37.424-9.312-19.872 33.045333-38.133334 5.717333-5.717333 38.133334-33.045333 19.872 9.312 37.424-22.922667 31.002666 22.922667 31.002667-9.312 37.424 33.045333 19.872 5.717333 38.133333 38.133334 5.717334 19.872 33.045333 37.424-9.312 31.002666 22.922667 31.002667-22.922667 37.424 9.312 19.872-33.045333 38.133333-5.717334 5.717334-38.133333 33.045333-19.872z" fill="#D0AF59" p-id="6931"></path></svg>