<?xml version="1.0" standalone="no"?><!DOCTYPE svg PUBLIC "-//W3C//DTD SVG 1.1//EN" "http://www.w3.org/Graphics/SVG/1.1/DTD/svg11.dtd"><svg t="1755343733673" class="icon" viewBox="0 0 1024 1024" version="1.1" xmlns="http://www.w3.org/2000/svg" p-id="1525" xmlns:xlink="http://www.w3.org/1999/xlink" width="200" height="200"><path d="M846.848 965.632H175.104C106.496 965.632 51.2 910.336 51.2 841.728V189.44c0-68.608 56.32-124.928 124.928-124.928h671.744c68.608 0 124.928 56.32 124.928 124.928v652.288c-1.024 68.608-57.344 123.904-125.952 123.904zM175.104 121.856c-36.864 0-67.584 29.696-67.584 67.584v652.288c0 36.864 29.696 67.584 67.584 67.584h671.744c36.864 0 67.584-29.696 67.584-67.584V189.44c0-36.864-29.696-67.584-67.584-67.584H175.104z m0 0" fill="#ffffff" p-id="1526"></path><path d="M348.16 715.776h-16.384v135.168H348.16c38.912 0 60.416-22.528 60.416-68.608 0-45.056-21.504-66.56-60.416-66.56z m176.128 0c-5.12 20.48-11.264 40.96-16.384 60.416l-7.168 24.576h49.152l-7.168-24.576c-6.144-19.456-11.264-39.936-18.432-60.416z m0 0" fill="#ffffff" p-id="1527"></path><path d="M79.872 630.784v210.944c0 53.248 43.008 96.256 96.256 96.256h671.744c53.248 0 96.256-43.008 96.256-96.256V630.784H79.872z m271.36 243.712h-49.152V693.248h47.104c55.296 0 88.064 30.72 88.064 90.112 0 58.368-31.744 91.136-86.016 91.136z m221.184 0l-15.36-52.224h-63.488l-15.36 52.224h-28.672l60.416-182.272H542.72l60.416 182.272h-30.72z m108.544-68.608v68.608h-28.672v-68.608l-54.272-112.64h30.72l20.48 48.128c6.144 13.312 11.264 26.624 17.408 39.936h1.024c6.144-14.336 12.288-26.624 17.408-39.936l21.504-48.128h29.696l-55.296 112.64z m0 0M421.888 498.688h68.608V280.576h-56.32v-30.72c29.696-5.12 50.176-13.312 68.608-23.552h36.864v273.408h61.44v40.96H421.888v-41.984z m0 0" fill="#ffffff" p-id="1528"></path></svg>