<svg xmlns="http://www.w3.org/2000/svg" width="214" height="46" viewBox="0 0 214 46" id="svg-1">
  <defs id="defs-2">
    <style id="style-3">
	.cls-1 { fill-rule: evenodd; }
</style>
  </defs>
  <path id="Shape_6.svg" data-name="Shape 6.svg" class="cls-1" d="M362,201a2,2,0,1,1-2,2A2,2,0,0,1,362,201Zm14,0a2,2,0,1,1-2,2A2,2,0,0,1,376,201Zm14,0a2,2,0,1,1-2,2A2,2,0,0,1,390,201Zm14,0a2,2,0,1,1-2,2A2,2,0,0,1,404,201Zm14,0a2,2,0,1,1-2,2A2,2,0,0,1,418,201Zm14,0a2,2,0,1,1-2,2A2,2,0,0,1,432,201Zm14,0a2,2,0,1,1-2,2A2,2,0,0,1,446,201Zm14,0a2,2,0,1,1-2,2A2,2,0,0,1,460,201Zm14,0a2,2,0,1,1-2,2A2,2,0,0,1,474,201Zm14,0a2,2,0,1,1-2,2A2,2,0,0,1,488,201Zm14,0a2,2,0,1,1-2,2A2,2,0,0,1,502,201Zm14,0a2,2,0,1,1-2,2A2,2,0,0,1,516,201Zm14,0a2,2,0,1,1-2,2A2,2,0,0,1,530,201Zm14,0a2,2,0,1,1-2,2A2,2,0,0,1,544,201Zm14,0a2,2,0,1,1-2,2A2,2,0,0,1,558,201Zm14,0a2,2,0,1,1-2,2A2,2,0,0,1,572,201ZM362,215a2,2,0,1,1-2,2A2,2,0,0,1,362,215Zm14,0a2,2,0,1,1-2,2A2,2,0,0,1,376,215Zm14,0a2,2,0,1,1-2,2A2,2,0,0,1,390,215Zm14,0a2,2,0,1,1-2,2A2,2,0,0,1,404,215Zm14,0a2,2,0,1,1-2,2A2,2,0,0,1,418,215Zm14,0a2,2,0,1,1-2,2A2,2,0,0,1,432,215Zm14,0a2,2,0,1,1-2,2A2,2,0,0,1,446,215Zm14,0a2,2,0,1,1-2,2A2,2,0,0,1,460,215Zm14,0a2,2,0,1,1-2,2A2,2,0,0,1,474,215Zm14,0a2,2,0,1,1-2,2A2,2,0,0,1,488,215Zm14,0a2,2,0,1,1-2,2A2,2,0,0,1,502,215Zm14,0a2,2,0,1,1-2,2A2,2,0,0,1,516,215Zm14,0a2,2,0,1,1-2,2A2,2,0,0,1,530,215Zm14,0a2,2,0,1,1-2,2A2,2,0,0,1,544,215Zm14,0a2,2,0,1,1-2,2A2,2,0,0,1,558,215Zm14,0a2,2,0,1,1-2,2A2,2,0,0,1,572,215ZM362,229a2,2,0,1,1-2,2A2,2,0,0,1,362,229Zm14,0a2,2,0,1,1-2,2A2,2,0,0,1,376,229Zm14,0a2,2,0,1,1-2,2A2,2,0,0,1,390,229Zm14,0a2,2,0,1,1-2,2A2,2,0,0,1,404,229Zm14,0a2,2,0,1,1-2,2A2,2,0,0,1,418,229Zm14,0a2,2,0,1,1-2,2A2,2,0,0,1,432,229Zm14,0a2,2,0,1,1-2,2A2,2,0,0,1,446,229Zm14,0a2,2,0,1,1-2,2A2,2,0,0,1,460,229Zm14,0a2,2,0,1,1-2,2A2,2,0,0,1,474,229Zm14,0a2,2,0,1,1-2,2A2,2,0,0,1,488,229Zm14,0a2,2,0,1,1-2,2A2,2,0,0,1,502,229Zm14,0a2,2,0,1,1-2,2A2,2,0,0,1,516,229Zm14,0a2,2,0,1,1-2,2A2,2,0,0,1,530,229Zm14,0a2,2,0,1,1-2,2A2,2,0,0,1,544,229Zm14,0a2,2,0,1,1-2,2A2,2,0,0,1,558,229Zm14,0a2,2,0,1,1-2,2A2,2,0,0,1,572,229ZM362,243a2,2,0,1,1-2,2A2,2,0,0,1,362,243Zm14,0a2,2,0,1,1-2,2A2,2,0,0,1,376,243Zm14,0a2,2,0,1,1-2,2A2,2,0,0,1,390,243Zm14,0a2,2,0,1,1-2,2A2,2,0,0,1,404,243Zm14,0a2,2,0,1,1-2,2A2,2,0,0,1,418,243Zm14,0a2,2,0,1,1-2,2A2,2,0,0,1,432,243Zm14,0a2,2,0,1,1-2,2A2,2,0,0,1,446,243Zm14,0a2,2,0,1,1-2,2A2,2,0,0,1,460,243Zm14,0a2,2,0,1,1-2,2A2,2,0,0,1,474,243Zm14,0a2,2,0,1,1-2,2A2,2,0,0,1,488,243Zm14,0a2,2,0,1,1-2,2A2,2,0,0,1,502,243Zm14,0a2,2,0,1,1-2,2A2,2,0,0,1,516,243Zm14,0a2,2,0,1,1-2,2A2,2,0,0,1,530,243Zm14,0a2,2,0,1,1-2,2A2,2,0,0,1,544,243Zm14,0a2,2,0,1,1-2,2A2,2,0,0,1,558,243Zm14,0a2,2,0,1,1-2,2A2,2,0,0,1,572,243Z" transform="translate(-360 -201)" fill="#ffffff" fill-opacity="0.3" type="solidColor"></path>
</svg>