<svg xmlns="http://www.w3.org/2000/svg" width="64" height="64" viewBox="0 0 64 64" data-prefix="i7op8x33m"><path d="M62.76 58.409A1.239 1.239 0 0 1 64 59.643v.657a3.717 3.717 0 0 1-3.72 3.7H39.55a3.717 3.717 0 0 1-3.72-3.7V30.948a3.717 3.717 0 0 1 3.72-3.7h20.73a3.676 3.676 0 0 1 3.72 3.7v23.9a1.24 1.24 0 0 1-2.48 0v-7.991h-6.06v14.676h4.82a1.271 1.271 0 0 0 1.24-1.236v-.653a1.232 1.232 0 0 1 1.24-1.235zM46.92 44.388h6.06v-6.105h-6.06v6.105zm-8.61 15.908a1.271 1.271 0 0 0 1.24 1.236h4.89v-6.1h-6.13V60.3zm0-7.336h6.13v-6.1h-6.13v6.1zm0-8.572h6.13v-6.105h-6.13v6.105zm23.21-13.44a1.21 1.21 0 0 0-1.24-1.237H39.55a1.271 1.271 0 0 0-1.24 1.237v4.868h23.21v-4.868zm0 13.44v-6.105h-6.06v6.105h6.06zm-14.6 2.468v6.1h6.06v-6.1h-6.06zm6.06 8.572h-6.06v6.1h6.06v-6.1zm-4.23-30.077a1.232 1.232 0 0 1-1.24-1.234V2.468h-7.52v8.137a1.241 1.241 0 0 1-1.81 1.1l-3.08-1.6-3.16 1.6a1.214 1.214 0 0 1-.56.132 1.276 1.276 0 0 1-.65-.18 1.227 1.227 0 0 1-.59-1.053V5.155a1.24 1.24 0 0 1 2.48 0v3.431l1.92-.973a1.253 1.253 0 0 1 1.13 0l1.84.951v-6.1H10v55.65a1.24 1.24 0 0 1-2.48 0V2.464H2.48v59.064h30.8a1.234 1.234 0 1 1 0 2.468H1.24A1.239 1.239 0 0 1 0 62.762V1.234A1.239 1.239 0 0 1 1.24 0h47.51a1.239 1.239 0 0 1 1.24 1.234v22.883a1.239 1.239 0 0 1-1.24 1.234zm-31.24-6.828a1.238 1.238 0 0 1 1.24-1.233h20a1.234 1.234 0 1 1 0 2.467h-20a1.239 1.239 0 0 1-1.24-1.234zm6.28 6.1a1.234 1.234 0 1 1 0-2.467h9.92a1.234 1.234 0 1 1 0 2.467h-9.92z" fill-rule="evenodd" class="path-igfellc9z"></path></svg>