<?xml version="1.0" standalone="no"?><!DOCTYPE svg PUBLIC "-//W3C//DTD SVG 1.1//EN" "http://www.w3.org/Graphics/SVG/1.1/DTD/svg11.dtd"><svg t="1755343373399" class="icon" viewBox="0 0 1024 1024" version="1.1" xmlns="http://www.w3.org/2000/svg" p-id="7186" xmlns:xlink="http://www.w3.org/1999/xlink" width="200" height="200"><path d="M938.666667 341.333333a42.666667 42.666667 0 0 1-42.666667 42.666667h-85.333333v256a256 256 0 0 1-256 256H213.333333a85.333333 85.333333 0 0 1-85.333333-85.333333v-341.333334a256 256 0 0 1 256-256h341.333333a85.333333 85.333333 0 0 1 85.333334 85.333334h85.333333V256h42.666667v85.333333z m-469.333334 384a170.666667 170.666667 0 1 0 0-341.333333 170.666667 170.666667 0 0 0 0 341.333333z" fill="#ffffff" p-id="7187"></path><path d="M512 128h128a42.666667 42.666667 0 0 1 42.666667 42.666667v42.666666h-213.333334V170.666667a42.666667 42.666667 0 0 1 42.666667-42.666667z" fill="#ffffff" opacity=".3" p-id="7188"></path></svg>