<?xml version="1.0" standalone="no"?><!DOCTYPE svg PUBLIC "-//W3C//DTD SVG 1.1//EN" "http://www.w3.org/Graphics/SVG/1.1/DTD/svg11.dtd"><svg t="1762176454917" class="icon" viewBox="0 0 1213 1024" version="1.1" xmlns="http://www.w3.org/2000/svg" p-id="8827" xmlns:xlink="http://www.w3.org/1999/xlink" width="236.9140625" height="200"><path d="M948.148148 1005.037037c-15.17037 0-34.133333-7.585185-60.681481-22.755556L644.740741 804.02963c-132.740741 125.155556-144.118519 132.740741-151.703704 132.74074-30.340741 11.377778-41.718519 0-45.511111-7.585185l-3.792593-3.792592 22.755556-276.85926 7.585185-3.792592C750.933333 409.6 872.296296 299.614815 925.392593 250.311111L341.333333 614.4l-7.585185-3.792593c-178.251852-56.888889-269.274074-83.437037-276.859259-87.229629-30.340741-7.585185-34.133333-30.340741-34.133333-49.303704 0-22.755556 15.17037-37.925926 45.511111-53.096296L1084.681481 26.548148c26.548148-11.377778 49.303704-11.377778 72.05926-3.792592 18.962963 7.585185 37.925926 22.755556 37.925926 68.266666v3.792593c-174.459259 845.748148-182.044444 860.918519-185.837037 868.503704-11.377778 22.755556-26.548148 30.340741-41.718519 37.925925h-3.792592c-3.792593 3.792593-11.377778 3.792593-15.170371 3.792593z m-307.2-250.311111l261.688889 197.214815c30.340741 18.962963 41.718519 15.17037 41.718519 15.17037h3.792592c11.377778-7.585185 18.962963-7.585185 26.548148-18.962963 3.792593-15.17037 41.718519-174.459259 182.044445-853.333333 0-26.548148-11.377778-30.340741-15.170371-30.340741-15.17037-3.792593-30.340741-3.792593-45.511111 3.792593L79.644444 451.318519c-15.17037 7.585185-22.755556 15.17037-22.755555 18.962962v11.377778h3.792592c11.377778 3.792593 94.814815 30.340741 269.274075 83.437037L948.148148 189.62963c11.377778-3.792593 34.133333-11.377778 45.511111 3.792592 7.585185 7.585185 7.585185 22.755556 0 37.925926-7.585185 7.585185-18.962963 34.133333-489.244444 436.148148l-18.962963 231.348148c15.17037-11.377778 53.096296-45.511111 144.118518-132.74074l11.377778-11.377778z" fill="#ffffff" p-id="8828"></path></svg>